<?xml version="1.0" encoding="UTF-8" standalone="no"?>
<svg width="74px" height="49px" viewBox="0 0 74 49" version="1.1" xmlns="http://www.w3.org/2000/svg" xmlns:xlink="http://www.w3.org/1999/xlink">
    <defs></defs>
    <g id="Footer" stroke="none" stroke-width="1" fill="none" fill-rule="evenodd">
        <g id="Artboard-1" transform="translate(-596.000000, -26.000000)">
            <g id="right-+-left-+-moroccan-flag" transform="translate(442.000000, 26.000000)">
                <g id="moroccan-flag" transform="translate(154.000000, 0.000000)">
                    <g id="Group">
                        <rect id="Rectangle-path" fill="#D4D4D5" x="0" y="0" width="74" height="49"></rect>
                        <path d="M36.9946142,8.20997876 L33.1276299,20.0695581 L20.5841667,20.0802568 L30.7255755,27.4089098 L26.8585912,39.2791879 C29.4721176,37.3753404 34.2048567,33.9632582 37,31.9505349 L47.1521804,39.2738385 L43.2744245,27.4142592 L53.4158333,20.0749075 L40.8831417,20.0749075 L36.9946142,8.20997876 L36.9946142,8.20997876 Z M36.9946142,16.3303402 L38.227956,20.0695581 L35.772044,20.0749075 L36.9946142,16.3303402 L36.9946142,16.3303402 Z M32.3036067,22.5784181 L31.5495986,24.9053992 L28.3450642,22.5891169 L32.3036067,22.5784181 L32.3036067,22.5784181 Z M34.9534066,22.5784181 L39.0465934,22.5784181 L40.3122498,26.4513705 L37,28.8478935 L33.6877502,26.4513705 L34.9534066,22.5784181 L34.9534066,22.5784181 Z M41.6963933,22.5784181 L45.64955,22.5784181 L42.4557871,24.9053992 L41.6963933,22.5784181 L41.6963933,22.5784181 Z M32.8691128,28.9655799 L34.8618485,30.3938648 L31.6573141,32.7101471 L32.8691128,28.9655799 L32.8691128,28.9655799 Z M41.1416587,28.9655799 L42.3534575,32.7101471 L39.1543088,30.3992142 L39.1543088,30.3938648 L41.1416587,28.9655799 L41.1416587,28.9655799 Z" id="star" fill="#FFFFFF"></path>
                    </g>
                </g>
            </g>
        </g>
    </g>
</svg>