<?xml version="1.0" encoding="UTF-8" standalone="no"?>
<svg width="7756px" height="1591px" viewBox="0 0 7756 1591" version="1.1" xmlns="http://www.w3.org/2000/svg" xmlns:xlink="http://www.w3.org/1999/xlink">
    <defs></defs>
    <g id="Page-2" stroke="none" stroke-width="1" fill="none" fill-rule="evenodd">
        <g id="Artboard-1-Copy" transform="translate(-5230.000000, -3784.000000)">
            <g id="logo-copy-5" transform="translate(5230.000000, 3784.000000)">
                <path d="M1188,444 L1581,444 L1581,619 L1401,619 L1401,693 L1578,693 L1578,859 L1401,859 L1401,936 L1588,936 L1588,1111 L1188,1111 L1188,444 Z M1514,1031 L1514,1007 L1314,1007 L1314,788 L1504,788 L1504,764 L1314,764 L1314,548 L1514,548 L1514,524 L1288,524 L1288,1031 L1514,1031 Z M1648,444 L1870,444 L1870,936 L2054,936 L2054,1111 L1648,1111 L1648,444 Z M1998,1031 L1998,1007 L1774,1007 L1774,524 L1748,524 L1748,1031 L1998,1031 Z M2089,444 L2482,444 L2482,619 L2302,619 L2302,693 L2479,693 L2479,859 L2302,859 L2302,936 L2489,936 L2489,1111 L2089,1111 L2089,444 Z M2415,1031 L2415,1007 L2215,1007 L2215,788 L2405,788 L2405,764 L2215,764 L2215,548 L2415,548 L2415,524 L2189,524 L2189,1031 L2415,1031 Z M2660,778 C2660,745.99984 2665.49995,716.00014 2676.5,688 C2687.50005,659.99986 2702.9999,635.66677 2723,615 C2743.0001,594.33323 2767.33319,578.00006 2796,566 C2824.66681,553.99994 2856.66649,548 2892,548 C2909.33342,548 2924.83327,549.166655 2938.5,551.5 C2952.16673,553.833345 2963.66662,556.66665 2973,560 C2984.33339,563.33335 2993.99996,567.33331 3002,572 L3016,548 C3005.33328,543.33331 2994.00006,539.00002 2982,535 C2970.66661,531.66665 2957.66674,528.66668 2943,526 C2928.33326,523.33332 2911.33343,522 2892,522 C2857.99983,522 2825.50016,527.99994 2794.5,540 C2763.49984,552.00006 2736.16678,569.166555 2712.5,591.5 C2688.83322,613.833445 2669.83341,640.833175 2655.5,672.5 C2641.16659,704.166825 2634,739.33314 2634,778 C2634,817.33353 2640.83327,852.66651 2654.5,884 C2668.16673,915.33349 2686.99988,942.166555 2711,964.5 C2735.00012,986.833445 2762.99984,1003.99994 2795,1016 C2827.00016,1028.00006 2860.99982,1034 2897,1034 C2917.0001,1034 2934.99992,1032.33335 2951,1029 C2967.00008,1025.66665 2980.66661,1022.00002 2992,1018 C3004.66673,1013.33331 3015.99995,1008.00003 3026,1002 L3012,978 C3003.33329,984.00003 2993.33339,988.99998 2982,993 C2971.99995,997.00002 2960.00007,1000.49998 2946,1003.5 C2931.99993,1006.50002 2915.66676,1008 2897,1008 C2860.33315,1008 2827.33348,1002.00006 2798,990 C2768.66652,977.99994 2743.83344,961.66677 2723.5,941 C2703.16656,920.33323 2687.50005,896.00014 2676.5,868 C2665.49995,839.99986 2660,810.00016 2660,778 L2660,778 Z M2534,778 C2534,724.6664 2543.33324,676.500215 2562,633.5 C2580.66676,590.499785 2605.99984,553.66682 2638,523 C2670.00016,492.33318 2707.33312,468.833415 2750,452.5 C2792.66688,436.166585 2837.99976,428 2886,428 C2924.00019,428 2957.83318,431.66663 2987.5,439 C3017.16682,446.33337 3042.66656,454.66662 3064,464 C3088.66679,474.66672 3109.99991,486.33327 3128,499 L3023,684 C3012.33328,675.99996 3000.66673,668.33337 2988,661 C2976.66661,655.66664 2963.16674,650.500025 2947.5,645.5 C2931.83326,640.499975 2914.0001,638 2894,638 C2873.33323,638 2854.33342,641.66663 2837,649 C2819.66658,656.33337 2804.50007,666.33327 2791.5,679 C2778.49993,691.66673 2768.33337,706.499915 2761,723.5 C2753.66663,740.500085 2750,758.66657 2750,778 C2750,797.33343 2753.83329,815.499915 2761.5,832.5 C2769.16671,849.500085 2779.6666,864.33327 2793,877 C2806.3334,889.66673 2821.99991,899.66663 2840,907 C2858.00009,914.33337 2877.66656,918 2899,918 C2920.33344,918 2939.33325,915.33336 2956,910 C2972.66675,904.66664 2986.66661,898.6667 2998,892 C3011.3334,884.66663 3022.99995,876.00005 3033,866 L3138,1051 C3119.99991,1065.66674 3098.66679,1078.66661 3074,1090 C3052.66656,1099.33338 3027.00015,1107.99996 2997,1116 C2966.99985,1124.00004 2932.66686,1128 2894,1128 C2841.99974,1128 2794.00022,1119.50009 2750,1102.5 C2705.99978,1085.49991 2668.00016,1061.66682 2636,1031 C2603.99984,1000.33318 2579.00009,963.500215 2561,920.5 C2542.99991,877.499785 2534,830.00026 2534,778 L2534,778 Z M3251,619 L3128,619 L3128,444 L3594,444 L3594,619 L3471,619 L3471,1111 L3251,1111 L3251,619 Z M3374,1031 L3374,548 L3517,548 L3517,524 L3205,524 L3205,548 L3348,548 L3348,1031 L3374,1031 Z M3837,879 C3863.00013,879 3888.33321,876.33336 3913,871 L4008,1031 L4039,1031 L3939,863 C3975.00018,850.33327 4003.66656,830.833465 4025,804.5 C4046.33344,778.166535 4057,744.00021 4057,702 C4057,672.66652 4051.33339,647.00011 4040,625 C4028.66661,602.99989 4013.16676,584.500075 3993.5,569.5 C3973.83324,554.499925 3950.6668,543.166705 3924,535.5 C3897.3332,527.833295 3868.33349,524 3837,524 L3729,524 L3729,1031 L3755,1031 L3755,879 L3837,879 Z M3755,855 L3755,548 L3837,548 C3897.66697,548 3945.16649,561.3332 3979.5,588 C4013.83351,614.6668 4031,652.66642 4031,702 C4031,751.33358 4013.83351,789.166535 3979.5,815.5 C3945.16649,841.833465 3897.66697,855 3837,855 L3755,855 Z M3629,444 L3859,444 C3901.66688,444 3941.16648,449.66661 3977.5,461 C4013.83352,472.33339 4045.3332,488.99989 4072,511 C4098.6668,533.00011 4119.49993,560.166505 4134.5,592.5 C4149.50007,624.833495 4157,661.99979 4157,704 C4157,737.3335 4152.33338,765.66655 4143,789 C4133.66662,812.33345 4123.33339,831.66659 4112,847 C4098.6666,864.33342 4083.66675,878.99994 4067,891 L4192,1111 L3942,1111 L3842,942 L3842,1111 L3629,1111 L3629,444 Z M3842,772 L3853,772 C3878.33346,772 3899.83324,766.33339 3917.5,755 C3935.16676,743.66661 3944,724.6668 3944,698 C3944,671.3332 3935.16676,652.33339 3917.5,641 C3899.83324,629.66661 3878.33346,624 3853,624 L3842,624 L3842,772 Z M4212,444 L4438,444 L4438,1111 L4212,1111 L4212,444 Z M4338,1031 L4338,524 L4312,524 L4312,1031 L4338,1031 Z M4508,444 L4724,444 L4724,598 L4850,444 L5111,444 L4876,749 L5123,1111 L4866,1111 L4724,905 L4724,1111 L4508,1111 L4508,444 Z M4634,1031 L4634,896 L4738,767 L4920,1031 L4951,1031 L4756,746 L4935,524 L4903,524 L4634,856 L4634,524 L4608,524 L4608,1031 L4634,1031 Z M5343,444 L5736,444 L5736,619 L5556,619 L5556,693 L5733,693 L5733,859 L5556,859 L5556,1111 L5343,1111 L5343,444 Z M5469,1031 L5469,788 L5659,788 L5659,764 L5469,764 L5469,548 L5669,548 L5669,524 L5443,524 L5443,1031 L5469,1031 Z M5999,879 C6025.00013,879 6050.33321,876.33336 6075,871 L6170,1031 L6201,1031 L6101,863 C6137.00018,850.33327 6165.66656,830.833465 6187,804.5 C6208.33344,778.166535 6219,744.00021 6219,702 C6219,672.66652 6213.33339,647.00011 6202,625 C6190.66661,602.99989 6175.16676,584.500075 6155.5,569.5 C6135.83324,554.499925 6112.6668,543.166705 6086,535.5 C6059.3332,527.833295 6030.33349,524 5999,524 L5891,524 L5891,1031 L5917,1031 L5917,879 L5999,879 Z M5917,855 L5917,548 L5999,548 C6059.66697,548 6107.16649,561.3332 6141.5,588 C6175.83351,614.6668 6193,652.66642 6193,702 C6193,751.33358 6175.83351,789.166535 6141.5,815.5 C6107.16649,841.833465 6059.66697,855 5999,855 L5917,855 Z M5791,444 L6021,444 C6063.66688,444 6103.16648,449.66661 6139.5,461 C6175.83352,472.33339 6207.3332,488.99989 6234,511 C6260.6668,533.00011 6281.49993,560.166505 6296.5,592.5 C6311.50007,624.833495 6319,661.99979 6319,704 C6319,737.3335 6314.33338,765.66655 6305,789 C6295.66662,812.33345 6285.33339,831.66659 6274,847 C6260.6666,864.33342 6245.66675,878.99994 6229,891 L6354,1111 L6104,1111 L6004,942 L6004,1111 L5791,1111 L5791,444 Z M6004,772 L6015,772 C6040.33346,772 6061.83324,766.33339 6079.5,755 C6097.16676,743.66661 6106,724.6668 6106,698 C6106,671.3332 6097.16676,652.33339 6079.5,641 C6061.83324,629.66661 6040.33346,624 6015,624 L6004,624 L6004,772 Z M6359,778 C6359,729.99976 6368.16658,684.66688 6386.5,642 C6404.83342,599.33312 6429.83317,562.166825 6461.5,530.5 C6493.16683,498.833175 6530.33312,473.833425 6573,455.5 C6615.66688,437.166575 6660.99976,428 6709,428 C6757.00024,428 6802.33312,437.166575 6845,455.5 C6887.66688,473.833425 6924.83317,498.833175 6956.5,530.5 C6988.16683,562.166825 7013.16658,599.33312 7031.5,642 C7049.83342,684.66688 7059,729.99976 7059,778 C7059,826.00024 7049.83342,871.33312 7031.5,914 C7013.16658,956.66688 6988.16683,993.833175 6956.5,1025.5 C6924.83317,1057.16683 6887.66688,1082.16657 6845,1100.5 C6802.33312,1118.83343 6757.00024,1128 6709,1128 C6660.99976,1128 6615.66688,1118.83343 6573,1100.5 C6530.33312,1082.16657 6493.16683,1057.16683 6461.5,1025.5 C6429.83317,993.833175 6404.83342,956.66688 6386.5,914 C6368.16658,871.33312 6359,826.00024 6359,778 L6359,778 Z M6453,778 C6453,813.33351 6459.6666,846.499845 6473,877.5 C6486.3334,908.500155 6504.66655,935.66655 6528,959 C6551.33345,982.33345 6578.49985,1000.6666 6609.5,1014 C6640.50015,1027.3334 6673.66649,1034 6709,1034 C6744.33351,1034 6777.49985,1027.3334 6808.5,1014 C6839.50015,1000.6666 6866.66655,982.33345 6890,959 C6913.33345,935.66655 6931.6666,908.500155 6945,877.5 C6958.3334,846.499845 6965,813.33351 6965,778 C6965,742.66649 6958.3334,709.500155 6945,678.5 C6931.6666,647.499845 6913.33345,620.33345 6890,597 C6866.66655,573.66655 6839.50015,555.3334 6808.5,542 C6777.49985,528.6666 6744.33351,522 6709,522 C6673.66649,522 6640.50015,528.6666 6609.5,542 C6578.49985,555.3334 6551.33345,573.66655 6528,597 C6504.66655,620.33345 6486.3334,647.499845 6473,678.5 C6459.6666,709.500155 6453,742.66649 6453,778 L6453,778 Z M6569,778 C6569,797.33343 6572.66663,815.499915 6580,832.5 C6587.33337,849.500085 6597.33327,864.33327 6610,877 C6622.66673,889.66673 6637.49992,899.66663 6654.5,907 C6671.50008,914.33337 6689.66657,918 6709,918 C6728.33343,918 6746.49992,914.33337 6763.5,907 C6780.50008,899.66663 6795.33327,889.66673 6808,877 C6820.66673,864.33327 6830.66663,849.500085 6838,832.5 C6845.33337,815.499915 6849,797.33343 6849,778 C6849,758.66657 6845.33337,740.500085 6838,723.5 C6830.66663,706.499915 6820.66673,691.66673 6808,679 C6795.33327,666.33327 6780.50008,656.33337 6763.5,649 C6746.49992,641.66663 6728.33343,638 6709,638 C6689.66657,638 6671.50008,641.66663 6654.5,649 C6637.49992,656.33337 6622.66673,666.33327 6610,679 C6597.33327,691.66673 6587.33337,706.499915 6580,723.5 C6572.66663,740.500085 6569,758.66657 6569,778 L6569,778 Z M6709,1008 C6676.99984,1008 6647.1668,1002.00006 6619.5,990 C6591.8332,977.99994 6567.50011,961.500105 6546.5,940.5 C6525.49989,919.499895 6509.00006,895.166805 6497,867.5 C6484.99994,839.833195 6479,810.00016 6479,778 C6479,745.99984 6484.99994,716.166805 6497,688.5 C6509.00006,660.833195 6525.49989,636.500105 6546.5,615.5 C6567.50011,594.499895 6591.8332,578.00006 6619.5,566 C6647.1668,553.99994 6676.99984,548 6709,548 C6741.00016,548 6770.8332,553.99994 6798.5,566 C6826.1668,578.00006 6850.49989,594.499895 6871.5,615.5 C6892.50011,636.500105 6908.99994,660.833195 6921,688.5 C6933.00006,716.166805 6939,745.99984 6939,778 C6939,810.00016 6933.00006,839.833195 6921,867.5 C6908.99994,895.166805 6892.50011,919.499895 6871.5,940.5 C6850.49989,961.500105 6826.1668,977.99994 6798.5,990 C6770.8332,1002.00006 6741.00016,1008 6709,1008 L6709,1008 Z M7539,671 C7526.99994,660.33328 7512.00009,652.166695 7494,646.5 C7475.99991,640.833305 7458.33342,638 7441,638 C7421.66657,638 7404.00008,641.499965 7388,648.5 C7371.99992,655.500035 7358.16672,665.166605 7346.5,677.5 C7334.83327,689.833395 7325.6667,704.66658 7319,722 C7312.3333,739.33342 7309,757.9999 7309,778 C7309,798.0001 7312.66663,816.66658 7320,834 C7327.33337,851.33342 7337.33327,866.166605 7350,878.5 C7362.66673,890.833395 7377.49991,900.499965 7394.5,907.5 C7411.50008,914.500035 7429.66657,918 7449,918 C7471.66678,918 7492.33324,913.166715 7511,903.5 C7529.66676,893.833285 7545.6666,880.66675 7559,864 L7499,864 L7499,724 L7756,724 L7756,946 C7740.66659,973.33347 7722.33344,998.166555 7701,1020.5 C7679.66656,1042.83344 7655.83346,1061.99992 7629.5,1078 C7603.16654,1094.00008 7574.66682,1106.33329 7544,1115 C7513.33318,1123.66671 7481.66683,1128 7449,1128 C7400.99976,1128 7355.66688,1119.00009 7313,1101 C7270.33312,1082.99991 7233.16683,1058.33349 7201.5,1027 C7169.83317,995.66651 7144.83342,958.66688 7126.5,916 C7108.16658,873.33312 7099,827.33358 7099,778 C7099,729.99976 7107.66658,684.66688 7125,642 C7142.33342,599.33312 7166.16651,562.166825 7196.5,530.5 C7226.83349,498.833175 7262.83313,473.833425 7304.5,455.5 C7346.16688,437.166575 7390.99976,428 7439,428 C7476.33352,428 7508.66653,431.66663 7536,439 C7563.33347,446.33337 7586.33324,454.66662 7605,464 C7627.00011,474.66672 7645.33326,486.33327 7660,499 L7539,671 Z M7549,542 C7540.33329,537.99998 7530.66672,534.66668 7520,532 C7510.66662,529.33332 7499.66673,527.00001 7487,525 C7474.33327,522.99999 7460.33341,522 7445,522 C7409.66649,522 7376.66682,528.33327 7346,541 C7315.33318,553.66673 7288.66678,571.166555 7266,593.5 C7243.33322,615.833445 7225.50007,642.66651 7212.5,674 C7199.49993,705.33349 7193,739.99981 7193,778 C7193,816.00019 7199.6666,850.66651 7213,882 C7226.3334,913.33349 7244.66655,940.166555 7268,962.5 C7291.33345,984.833445 7318.49985,1002.33327 7349.5,1015 C7380.50015,1027.66673 7413.66649,1034 7449,1034 C7495.00023,1034 7536.66648,1023.16678 7574,1001.5 C7611.33352,979.833225 7641.66655,951.00018 7665,915 L7665,784 L7559,784 L7559,808 L7639,808 L7639,908 C7618.33323,938.66682 7591.50016,962.99991 7558.5,981 C7525.49984,999.00009 7489.0002,1008 7449,1008 C7416.99984,1008 7387.1668,1002.50005 7359.5,991.5 C7331.8332,980.499945 7307.50011,964.833435 7286.5,944.5 C7265.49989,924.166565 7249.00006,899.833475 7237,871.5 C7224.99994,843.166525 7219,812.00017 7219,778 C7219,743.99983 7224.83327,712.833475 7236.5,684.5 C7248.16673,656.166525 7264.16656,631.833435 7284.5,611.5 C7304.83343,591.166565 7328.66653,575.500055 7356,564.5 C7383.33347,553.499945 7412.99984,548 7445,548 C7457.00006,548 7468.33328,548.99999 7479,551 C7489.66672,553.00001 7498.99996,554.99999 7507,557 C7516.33338,559.66668 7524.99996,562.33332 7533,565 L7549,542 Z" id="logotype" fill="#FFFFFF"></path>
                <g id="logo">
                    <g id="electricity" fill="#FFFFFF">
                        <path d="M0.551020408,944.644295 L298.591837,944.644295 L298.591837,1590.97987 L845,646.33557 L546.959184,646.33557 L546.959184,0 L0.551020408,944.644295 Z" id="Shape"></path>
                    </g>
                    <g id="hand" transform="translate(447.000253, 806.514800) rotate(-60.000000) translate(-447.000253, -806.514800) translate(293.500253, 542.014800)" fill="#556270">
                        <path d="M100.503407,257.984848 L64.5910689,195.225965 L64.4854052,195.442446 L1.40841494,113.106897 C-1.36586068,109.485584 0.0848611672,106.513678 4.64849689,106.468704 L93.3848947,105.59421 L132.640593,15.6634214 C141.479332,-4.58522712 155.81257,-4.57879107 164.6485,15.6634214 L202.590878,102.585528 L301.48049,107.020061 C306.039754,107.224513 307.38602,110.245329 304.487255,113.767491 L242.40516,189.200721 L209.817311,258.382965 L209.817308,528.946328 L97.4048779,528.946328 L100.503407,257.984848 Z" id="Triangle-1"></path>
                    </g>
                    <g id="circuts" transform="translate(147.000000, 236.000000)" stroke="#556270" stroke-linecap="square">
                        <path d="M264,802 L181,756" id="Line" stroke-width="10"></path>
                        <path d="M173.999999,754.2 L156.6,754.2" id="Line-Copy-5" stroke-width="10"></path>
                        <path d="M422,877 L320,815" id="Line" stroke-width="10"></path>
                        <path d="M156.4,1130 L197.2,1130" id="Line" stroke-width="10"></path>
                        <path d="M258,1069 L258,959" id="Line" stroke-width="10"></path>
                        <path d="M329,140 L272,289" id="Line-Copy" stroke-width="10"></path>
                        <path d="M406.6,903.4 L299.6,840.4" id="Line-Copy-2" stroke-width="10"></path>
                        <path d="M260.117168,1072.6 L296.600001,1094.4" id="Line-Copy-4" stroke-width="10"></path>
                        <path d="M197.4,1129 L197.4,1024" id="Line-Copy-3" stroke-width="10"></path>
                        <path d="M152,389 L75,389" id="Line" stroke-width="10"></path>
                        <path d="M72,391 L3,532" id="Line" stroke-width="10"></path>
                        <path d="M1.19999999,538.8 L1.19999999,703.999997" id="Line" stroke-width="10"></path>
                        <path d="M395,1 L338,1" id="Line" stroke-width="10"></path>
                        <path d="M602.4,565.4 L489.4,499.4" id="Line" stroke-width="10"></path>
                        <path d="M336,2 L279,151" id="Line" stroke-width="10"></path>
                        <g id="ends" transform="translate(139.000000, 151.000000)" stroke-width="6" fill="#556270">
                            <circle id="Oval-1" cx="136.5" cy="12.5" r="12.5"></circle>
                            <circle id="Oval-1-Copy-5" cx="12.5" cy="236.5" r="12.5"></circle>
                            <circle id="Oval-1-Copy-6" cx="337.5" cy="340.5" r="12.5"></circle>
                            <circle id="Oval-1-Copy-2" cx="172.9" cy="657.9" r="12.5"></circle>
                            <circle id="Oval-1-Copy-3" cx="156.5" cy="687.5" r="12.5"></circle>
                            <circle id="Oval-1-Copy-4" cx="132.5" cy="655.5" r="12.5"></circle>
                            <circle id="Oval-1-Copy-8" cx="118.5" cy="794.5" r="12.5"></circle>
                            <circle id="Oval-1-Copy-7" cx="58.1" cy="860.5" r="12.5"></circle>
                            <circle id="Oval-1-Copy" cx="127.5" cy="150.5" r="12.5"></circle>
                        </g>
                        <path d="M318,53 L330,134" id="Line" stroke-width="10"></path>
                    </g>
                </g>
            </g>
        </g>
    </g>
</svg>