<?xml version="1.0" encoding="UTF-8" standalone="no"?>
<svg width="3804px" height="1591px" viewBox="0 0 3804 1591" version="1.1" xmlns="http://www.w3.org/2000/svg" xmlns:xlink="http://www.w3.org/1999/xlink">
    <defs></defs>
    <g id="Page-2" stroke="none" stroke-width="1" fill="none" fill-rule="evenodd">
        <g id="Artboard-1-Copy" transform="translate(-9235.000000, -1871.000000)">
            <g id="logo-copy-5" transform="translate(9235.000000, 1871.000000)">
                <path d="M1049.5,65.1 L1324.6,65.1 L1324.6,187.6 L1198.6,187.6 L1198.6,239.4 L1322.5,239.4 L1322.5,355.6 L1198.6,355.6 L1198.6,409.5 L1329.5,409.5 L1329.5,532 L1049.5,532 L1049.5,65.1 Z M1277.7,476 L1277.7,459.2 L1137.7,459.2 L1137.7,305.9 L1270.7,305.9 L1270.7,289.1 L1137.7,289.1 L1137.7,137.9 L1277.7,137.9 L1277.7,121.1 L1119.5,121.1 L1119.5,476 L1277.7,476 Z M1371.5,65.1 L1526.9,65.1 L1526.9,409.5 L1655.7,409.5 L1655.7,532 L1371.5,532 L1371.5,65.1 Z M1616.5,476 L1616.5,459.2 L1459.7,459.2 L1459.7,121.1 L1441.5,121.1 L1441.5,476 L1616.5,476 Z M1680.2,65.1 L1955.3,65.1 L1955.3,187.6 L1829.3,187.6 L1829.3,239.4 L1953.2,239.4 L1953.2,355.6 L1829.3,355.6 L1829.3,409.5 L1960.2,409.5 L1960.2,532 L1680.2,532 L1680.2,65.1 Z M1908.4,476 L1908.4,459.2 L1768.4,459.2 L1768.4,305.9 L1901.4,305.9 L1901.4,289.1 L1768.4,289.1 L1768.4,137.9 L1908.4,137.9 L1908.4,121.1 L1750.2,121.1 L1750.2,476 L1908.4,476 Z M2079.9,298.9 C2079.9,276.499888 2083.74996,255.500098 2091.45,235.9 C2099.15004,216.299902 2109.99993,199.266739 2124,184.8 C2138.00007,170.333261 2155.03323,158.900042 2175.1,150.5 C2195.16677,142.099958 2217.56654,137.9 2242.3,137.9 C2254.43339,137.9 2265.28329,138.716658 2274.85,140.35 C2284.41671,141.983342 2292.46663,143.966655 2299,146.3 C2306.93337,148.633345 2313.69997,151.433317 2319.3,154.7 L2329.1,137.9 C2321.6333,134.633317 2313.70004,131.600014 2305.3,128.8 C2297.36663,126.466655 2288.26672,124.366676 2278,122.5 C2267.73328,120.633324 2255.8334,119.7 2242.3,119.7 C2218.49988,119.7 2195.75011,123.899958 2174.05,132.3 C2152.34989,140.700042 2133.21675,152.716588 2116.65,168.35 C2100.08325,183.983411 2086.78338,202.883223 2076.75,225.05 C2066.71662,247.216777 2061.7,271.833198 2061.7,298.9 C2061.7,326.433471 2066.48329,351.166557 2076.05,373.1 C2085.61671,395.033443 2098.79992,413.816589 2115.6,429.45 C2132.40008,445.083412 2151.99989,457.099958 2174.4,465.5 C2196.80011,473.900042 2220.59987,478.1 2245.8,478.1 C2259.80007,478.1 2272.39994,476.933345 2283.6,474.6 C2294.80006,472.266655 2304.36663,469.700014 2312.3,466.9 C2321.16671,463.633317 2329.09997,459.900021 2336.1,455.7 L2326.3,438.9 C2320.2333,443.100021 2313.23337,446.599986 2305.3,449.4 C2298.29997,452.200014 2289.90005,454.649989 2280.1,456.75 C2270.29995,458.850011 2258.86673,459.9 2245.8,459.9 C2220.13321,459.9 2197.03344,455.700042 2176.5,447.3 C2155.96656,438.899958 2138.5834,427.466739 2124.35,413 C2110.1166,398.533261 2099.15004,381.500098 2091.45,361.9 C2083.74996,342.299902 2079.9,321.300112 2079.9,298.9 L2079.9,298.9 Z M1991.7,298.9 C1991.7,261.56648 1998.23327,227.850151 2011.3,197.75 C2024.36673,167.649849 2042.09989,141.866774 2064.5,120.4 C2086.90011,98.933226 2113.03318,82.4833905 2142.9,71.05 C2172.76682,59.6166095 2204.49983,53.9 2238.1,53.9 C2264.70013,53.9 2288.38323,56.466641 2309.15,61.6 C2329.91677,66.733359 2347.76659,72.566634 2362.7,79.1 C2379.96675,86.566704 2394.89994,94.733289 2407.5,103.6 L2334,233.1 C2326.5333,227.499972 2318.36671,222.133359 2309.5,217 C2301.56663,213.266648 2292.11672,209.650018 2281.15,206.15 C2270.18328,202.649983 2257.70007,200.9 2243.7,200.9 C2229.23326,200.9 2215.93339,203.466641 2203.8,208.6 C2191.66661,213.733359 2181.05005,220.733289 2171.95,229.6 C2162.84995,238.466711 2155.73336,248.849941 2150.6,260.75 C2145.46664,272.650059 2142.9,285.366599 2142.9,298.9 C2142.9,312.433401 2145.58331,325.14994 2150.95,337.05 C2156.31669,348.950059 2163.66662,359.333289 2173,368.2 C2182.33338,377.066711 2193.29994,384.066641 2205.9,389.2 C2218.50006,394.333359 2232.26659,396.9 2247.2,396.9 C2262.13341,396.9 2275.43328,395.033352 2287.1,391.3 C2298.76673,387.566648 2308.56663,383.36669 2316.5,378.7 C2325.83338,373.566641 2333.99996,367.500035 2341,360.5 L2414.5,490 C2401.89994,500.266718 2386.96675,509.366627 2369.7,517.3 C2354.76659,523.833366 2336.80011,529.899972 2315.8,535.5 C2294.7999,541.100028 2270.7668,543.9 2243.7,543.9 C2207.29982,543.9 2173.70015,537.950059 2142.9,526.05 C2112.09985,514.14994 2085.50011,497.466774 2063.1,476 C2040.69989,454.533226 2023.20006,428.750151 2010.6,398.65 C1997.99994,368.549849 1991.7,335.300182 1991.7,298.9 L1991.7,298.9 Z M2493.6,187.6 L2407.5,187.6 L2407.5,65.1 L2733.7,65.1 L2733.7,187.6 L2647.6,187.6 L2647.6,532 L2493.6,532 L2493.6,187.6 Z M2579.7,476 L2579.7,137.9 L2679.8,137.9 L2679.8,121.1 L2461.4,121.1 L2461.4,137.9 L2561.5,137.9 L2561.5,476 L2579.7,476 Z M2903.8,369.6 C2922.00009,369.6 2939.73325,367.733352 2957,364 L3023.5,476 L3045.2,476 L2975.2,358.4 C3000.40013,349.533289 3020.46659,335.883425 3035.4,317.45 C3050.33341,299.016574 3057.8,275.100147 3057.8,245.7 C3057.8,225.166564 3053.83337,207.200077 3045.9,191.8 C3037.96663,176.399923 3027.11674,163.450053 3013.35,152.95 C2999.58326,142.449948 2983.36676,134.516694 2964.7,129.15 C2946.03324,123.783306 2925.73344,121.1 2903.8,121.1 L2828.2,121.1 L2828.2,476 L2846.4,476 L2846.4,369.6 L2903.8,369.6 Z M2846.4,352.8 L2846.4,137.9 L2903.8,137.9 C2946.26688,137.9 2979.51655,147.23324 3003.55,165.9 C3027.58345,184.56676 3039.6,211.166494 3039.6,245.7 C3039.6,280.233506 3027.58345,306.716574 3003.55,325.15 C2979.51655,343.583425 2946.26688,352.8 2903.8,352.8 L2846.4,352.8 Z M2758.2,65.1 L2919.2,65.1 C2949.06682,65.1 2976.71654,69.066627 3002.15,77 C3027.58346,84.933373 3049.63324,96.599923 3068.3,112 C3086.96676,127.400077 3101.54995,146.416553 3112.05,169.05 C3122.55005,191.683446 3127.8,217.699853 3127.8,247.1 C3127.8,270.43345 3124.53337,290.266585 3118,306.6 C3111.46663,322.933415 3104.23337,336.466613 3096.3,347.2 C3086.96662,359.333394 3076.46673,369.599958 3064.8,378 L3152.3,532 L2977.3,532 L2907.3,413.7 L2907.3,532 L2758.2,532 L2758.2,65.1 Z M2907.3,294.7 L2915,294.7 C2932.73342,294.7 2947.78327,290.733373 2960.15,282.8 C2972.51673,274.866627 2978.7,261.56676 2978.7,242.9 C2978.7,224.23324 2972.51673,210.933373 2960.15,203 C2947.78327,195.066627 2932.73342,191.1 2915,191.1 L2907.3,191.1 L2907.3,294.7 Z M3166.3,65.1 L3324.5,65.1 L3324.5,532 L3166.3,532 L3166.3,65.1 Z M3254.5,476 L3254.5,121.1 L3236.3,121.1 L3236.3,476 L3254.5,476 Z M3373.5,65.1 L3524.7,65.1 L3524.7,172.9 L3612.9,65.1 L3795.6,65.1 L3631.1,278.6 L3804,532 L3624.1,532 L3524.7,387.8 L3524.7,532 L3373.5,532 L3373.5,65.1 Z M3461.7,476 L3461.7,381.5 L3534.5,291.2 L3661.9,476 L3683.6,476 L3547.1,276.5 L3672.4,121.1 L3650,121.1 L3461.7,353.5 L3461.7,121.1 L3443.5,121.1 L3443.5,476 L3461.7,476 Z M1049.5,940.1 L1324.6,940.1 L1324.6,1062.6 L1198.6,1062.6 L1198.6,1114.4 L1322.5,1114.4 L1322.5,1230.6 L1198.6,1230.6 L1198.6,1407 L1049.5,1407 L1049.5,940.1 Z M1137.7,1351 L1137.7,1180.9 L1270.7,1180.9 L1270.7,1164.1 L1137.7,1164.1 L1137.7,1012.9 L1277.7,1012.9 L1277.7,996.1 L1119.5,996.1 L1119.5,1351 L1137.7,1351 Z M1508.7,1244.6 C1526.90009,1244.6 1544.63325,1242.73335 1561.9,1239 L1628.4,1351 L1650.1,1351 L1580.1,1233.4 C1605.30013,1224.53329 1625.36659,1210.88343 1640.3,1192.45 C1655.23341,1174.01657 1662.7,1150.10015 1662.7,1120.7 C1662.7,1100.16656 1658.73337,1082.20008 1650.8,1066.8 C1642.86663,1051.39992 1632.01674,1038.45005 1618.25,1027.95 C1604.48326,1017.44995 1588.26676,1009.51669 1569.6,1004.15 C1550.93324,998.783306 1530.63344,996.1 1508.7,996.1 L1433.1,996.1 L1433.1,1351 L1451.3,1351 L1451.3,1244.6 L1508.7,1244.6 Z M1451.3,1227.8 L1451.3,1012.9 L1508.7,1012.9 C1551.16688,1012.9 1584.41655,1022.23324 1608.45,1040.9 C1632.48345,1059.56676 1644.5,1086.16649 1644.5,1120.7 C1644.5,1155.23351 1632.48345,1181.71657 1608.45,1200.15 C1584.41655,1218.58343 1551.16688,1227.8 1508.7,1227.8 L1451.3,1227.8 Z M1363.1,940.1 L1524.1,940.1 C1553.96682,940.1 1581.61654,944.066627 1607.05,952 C1632.48346,959.933373 1654.53324,971.599923 1673.2,987 C1691.86676,1002.40008 1706.44995,1021.41655 1716.95,1044.05 C1727.45005,1066.68345 1732.7,1092.69985 1732.7,1122.1 C1732.7,1145.43345 1729.43337,1165.26658 1722.9,1181.6 C1716.36663,1197.93341 1709.13337,1211.46661 1701.2,1222.2 C1691.86662,1234.33339 1681.36673,1244.59996 1669.7,1253 L1757.2,1407 L1582.2,1407 L1512.2,1288.7 L1512.2,1407 L1363.1,1407 L1363.1,940.1 Z M1512.2,1169.7 L1519.9,1169.7 C1537.63342,1169.7 1552.68327,1165.73337 1565.05,1157.8 C1577.41673,1149.86663 1583.6,1136.56676 1583.6,1117.9 C1583.6,1099.23324 1577.41673,1085.93337 1565.05,1078 C1552.68327,1070.06663 1537.63342,1066.1 1519.9,1066.1 L1512.2,1066.1 L1512.2,1169.7 Z M1760.7,1173.9 C1760.7,1140.29983 1767.1166,1108.56682 1779.95,1078.7 C1792.7834,1048.83318 1810.28322,1022.81678 1832.45,1000.65 C1854.61678,978.483223 1880.63318,960.983397 1910.5,948.15 C1940.36682,935.316603 1972.09983,928.9 2005.7,928.9 C2039.30017,928.9 2071.03318,935.316603 2100.9,948.15 C2130.76682,960.983397 2156.78322,978.483223 2178.95,1000.65 C2201.11678,1022.81678 2218.6166,1048.83318 2231.45,1078.7 C2244.2834,1108.56682 2250.7,1140.29983 2250.7,1173.9 C2250.7,1207.50017 2244.2834,1239.23318 2231.45,1269.1 C2218.6166,1298.96682 2201.11678,1324.98322 2178.95,1347.15 C2156.78322,1369.31678 2130.76682,1386.8166 2100.9,1399.65 C2071.03318,1412.4834 2039.30017,1418.9 2005.7,1418.9 C1972.09983,1418.9 1940.36682,1412.4834 1910.5,1399.65 C1880.63318,1386.8166 1854.61678,1369.31678 1832.45,1347.15 C1810.28322,1324.98322 1792.7834,1298.96682 1779.95,1269.1 C1767.1166,1239.23318 1760.7,1207.50017 1760.7,1173.9 L1760.7,1173.9 Z M1826.5,1173.9 C1826.5,1198.63346 1831.16662,1221.84989 1840.5,1243.55 C1849.83338,1265.25011 1862.66658,1284.26659 1879,1300.6 C1895.33342,1316.93341 1914.34989,1329.76662 1936.05,1339.1 C1957.75011,1348.43338 1980.96654,1353.1 2005.7,1353.1 C2030.43346,1353.1 2053.64989,1348.43338 2075.35,1339.1 C2097.05011,1329.76662 2116.06658,1316.93341 2132.4,1300.6 C2148.73341,1284.26659 2161.56662,1265.25011 2170.9,1243.55 C2180.23338,1221.84989 2184.9,1198.63346 2184.9,1173.9 C2184.9,1149.16654 2180.23338,1125.95011 2170.9,1104.25 C2161.56662,1082.54989 2148.73341,1063.53342 2132.4,1047.2 C2116.06658,1030.86659 2097.05011,1018.03338 2075.35,1008.7 C2053.64989,999.36662 2030.43346,994.7 2005.7,994.7 C1980.96654,994.7 1957.75011,999.36662 1936.05,1008.7 C1914.34989,1018.03338 1895.33342,1030.86659 1879,1047.2 C1862.66658,1063.53342 1849.83338,1082.54989 1840.5,1104.25 C1831.16662,1125.95011 1826.5,1149.16654 1826.5,1173.9 L1826.5,1173.9 Z M1907.7,1173.9 C1907.7,1187.4334 1910.26664,1200.14994 1915.4,1212.05 C1920.53336,1223.95006 1927.53329,1234.33329 1936.4,1243.2 C1945.26671,1252.06671 1955.64994,1259.06664 1967.55,1264.2 C1979.45006,1269.33336 1992.1666,1271.9 2005.7,1271.9 C2019.2334,1271.9 2031.94994,1269.33336 2043.85,1264.2 C2055.75006,1259.06664 2066.13329,1252.06671 2075,1243.2 C2083.86671,1234.33329 2090.86664,1223.95006 2096,1212.05 C2101.13336,1200.14994 2103.7,1187.4334 2103.7,1173.9 C2103.7,1160.3666 2101.13336,1147.65006 2096,1135.75 C2090.86664,1123.84994 2083.86671,1113.46671 2075,1104.6 C2066.13329,1095.73329 2055.75006,1088.73336 2043.85,1083.6 C2031.94994,1078.46664 2019.2334,1075.9 2005.7,1075.9 C1992.1666,1075.9 1979.45006,1078.46664 1967.55,1083.6 C1955.64994,1088.73336 1945.26671,1095.73329 1936.4,1104.6 C1927.53329,1113.46671 1920.53336,1123.84994 1915.4,1135.75 C1910.26664,1147.65006 1907.7,1160.3666 1907.7,1173.9 L1907.7,1173.9 Z M2005.7,1334.9 C1983.29989,1334.9 1962.41676,1330.70004 1943.05,1322.3 C1923.68324,1313.89996 1906.65007,1302.35007 1891.95,1287.65 C1877.24993,1272.94993 1865.70004,1255.91676 1857.3,1236.55 C1848.89996,1217.18324 1844.7,1196.30011 1844.7,1173.9 C1844.7,1151.49989 1848.89996,1130.61676 1857.3,1111.25 C1865.70004,1091.88324 1877.24993,1074.85007 1891.95,1060.15 C1906.65007,1045.44993 1923.68324,1033.90004 1943.05,1025.5 C1962.41676,1017.09996 1983.29989,1012.9 2005.7,1012.9 C2028.10011,1012.9 2048.98324,1017.09996 2068.35,1025.5 C2087.71676,1033.90004 2104.74993,1045.44993 2119.45,1060.15 C2134.15007,1074.85007 2145.69996,1091.88324 2154.1,1111.25 C2162.50004,1130.61676 2166.7,1151.49989 2166.7,1173.9 C2166.7,1196.30011 2162.50004,1217.18324 2154.1,1236.55 C2145.69996,1255.91676 2134.15007,1272.94993 2119.45,1287.65 C2104.74993,1302.35007 2087.71676,1313.89996 2068.35,1322.3 C2048.98324,1330.70004 2028.10011,1334.9 2005.7,1334.9 L2005.7,1334.9 Z M2586.7,1099 C2578.29996,1091.5333 2567.80006,1085.81669 2555.2,1081.85 C2542.59994,1077.88331 2530.23339,1075.9 2518.1,1075.9 C2504.5666,1075.9 2492.20006,1078.34998 2481,1083.25 C2469.79994,1088.15002 2460.11671,1094.91662 2451.95,1103.55 C2443.78329,1112.18338 2437.36669,1122.56661 2432.7,1134.7 C2428.03331,1146.83339 2425.7,1159.89993 2425.7,1173.9 C2425.7,1187.90007 2428.26664,1200.96661 2433.4,1213.1 C2438.53336,1225.23339 2445.53329,1235.61662 2454.4,1244.25 C2463.26671,1252.88338 2473.64994,1259.64998 2485.55,1264.55 C2497.45006,1269.45002 2510.1666,1271.9 2523.7,1271.9 C2539.56675,1271.9 2554.03327,1268.5167 2567.1,1261.75 C2580.16673,1254.9833 2591.36662,1245.76672 2600.7,1234.1 L2558.7,1234.1 L2558.7,1136.1 L2738.6,1136.1 L2738.6,1291.5 C2727.86661,1310.63343 2715.03341,1328.01659 2700.1,1343.65 C2685.16659,1359.28341 2668.48343,1372.69994 2650.05,1383.9 C2631.61657,1395.10006 2611.66677,1403.7333 2590.2,1409.8 C2568.73323,1415.8667 2546.56678,1418.9 2523.7,1418.9 C2490.09983,1418.9 2458.36682,1412.60006 2428.5,1400 C2398.63318,1387.39994 2372.61678,1370.13344 2350.45,1348.2 C2328.28322,1326.26656 2310.7834,1300.36682 2297.95,1270.5 C2285.1166,1240.63318 2278.7,1208.43351 2278.7,1173.9 C2278.7,1140.29983 2284.76661,1108.56682 2296.9,1078.7 C2309.03339,1048.83318 2325.71656,1022.81678 2346.95,1000.65 C2368.18344,978.483223 2393.38319,960.983397 2422.55,948.15 C2451.71681,935.316603 2483.09983,928.9 2516.7,928.9 C2542.83346,928.9 2565.46657,931.466641 2584.6,936.6 C2603.73343,941.733359 2619.83327,947.566634 2632.9,954.1 C2648.30008,961.566704 2661.13328,969.733289 2671.4,978.6 L2586.7,1099 Z M2593.7,1008.7 C2587.6333,1005.89999 2580.8667,1003.56668 2573.4,1001.7 C2566.86663,999.833324 2559.16671,998.200007 2550.3,996.8 C2541.43329,995.399993 2531.63339,994.7 2520.9,994.7 C2496.16654,994.7 2473.06677,999.133289 2451.6,1008 C2430.13323,1016.86671 2411.46675,1029.11659 2395.6,1044.75 C2379.73325,1060.38341 2367.25005,1079.16656 2358.15,1101.1 C2349.04995,1123.03344 2344.5,1147.29987 2344.5,1173.9 C2344.5,1200.50013 2349.16662,1224.76656 2358.5,1246.7 C2367.83338,1268.63344 2380.66658,1287.41659 2397,1303.05 C2413.33342,1318.68341 2432.34989,1330.93329 2454.05,1339.8 C2475.75011,1348.66671 2498.96654,1353.1 2523.7,1353.1 C2555.90016,1353.1 2585.06654,1345.51674 2611.2,1330.35 C2637.33346,1315.18326 2658.56658,1295.00013 2674.9,1269.8 L2674.9,1178.1 L2600.7,1178.1 L2600.7,1194.9 L2656.7,1194.9 L2656.7,1264.9 C2642.23326,1286.36677 2623.45012,1303.39994 2600.35,1316 C2577.24988,1328.60006 2551.70014,1334.9 2523.7,1334.9 C2501.29989,1334.9 2480.41676,1331.05004 2461.05,1323.35 C2441.68324,1315.64996 2424.65007,1304.6834 2409.95,1290.45 C2395.24993,1276.2166 2383.70004,1259.18343 2375.3,1239.35 C2366.89996,1219.51657 2362.7,1197.70012 2362.7,1173.9 C2362.7,1150.09988 2366.78329,1128.28343 2374.95,1108.45 C2383.11671,1088.61657 2394.3166,1071.5834 2408.55,1057.35 C2422.7834,1043.1166 2439.46657,1032.15004 2458.6,1024.45 C2477.73343,1016.74996 2498.49989,1012.9 2520.9,1012.9 C2529.30004,1012.9 2537.2333,1013.59999 2544.7,1015 C2552.1667,1016.40001 2558.69997,1017.79999 2564.3,1019.2 C2570.83337,1021.06668 2576.89997,1022.93332 2582.5,1024.8 L2593.7,1008.7 Z" id="logotype" fill="#FFFFFF"></path>
                <g id="logo">
                    <g id="electricity" fill="#FFFFFF">
                        <path d="M0.551020408,944.644295 L298.591837,944.644295 L298.591837,1590.97987 L845,646.33557 L546.959184,646.33557 L546.959184,0 L0.551020408,944.644295 Z" id="Shape"></path>
                    </g>
                    <g id="hand" transform="translate(447.000253, 806.514800) rotate(-60.000000) translate(-447.000253, -806.514800) translate(293.500253, 542.014800)" fill="#556270">
                        <path d="M100.503407,257.984848 L64.5910689,195.225965 L64.4854052,195.442446 L1.40841494,113.106897 C-1.36586068,109.485584 0.0848611672,106.513678 4.64849689,106.468704 L93.3848947,105.59421 L132.640593,15.6634214 C141.479332,-4.58522712 155.81257,-4.57879107 164.6485,15.6634214 L202.590878,102.585528 L301.48049,107.020061 C306.039754,107.224513 307.38602,110.245329 304.487255,113.767491 L242.40516,189.200721 L209.817311,258.382965 L209.817308,528.946328 L97.4048779,528.946328 L100.503407,257.984848 Z" id="Triangle-1"></path>
                    </g>
                    <g id="circuts" transform="translate(147.000000, 236.000000)" stroke="#556270" stroke-linecap="square">
                        <path d="M264,802 L181,756" id="Line" stroke-width="10"></path>
                        <path d="M173.999999,754.2 L156.6,754.2" id="Line-Copy-5" stroke-width="10"></path>
                        <path d="M422,877 L320,815" id="Line" stroke-width="10"></path>
                        <path d="M156.4,1130 L197.2,1130" id="Line" stroke-width="10"></path>
                        <path d="M258,1069 L258,959" id="Line" stroke-width="10"></path>
                        <path d="M329,140 L272,289" id="Line-Copy" stroke-width="10"></path>
                        <path d="M406.6,903.4 L299.6,840.4" id="Line-Copy-2" stroke-width="10"></path>
                        <path d="M260.117168,1072.6 L296.600001,1094.4" id="Line-Copy-4" stroke-width="10"></path>
                        <path d="M197.4,1129 L197.4,1024" id="Line-Copy-3" stroke-width="10"></path>
                        <path d="M152,389 L75,389" id="Line" stroke-width="10"></path>
                        <path d="M72,391 L3,532" id="Line" stroke-width="10"></path>
                        <path d="M1.19999999,538.8 L1.19999999,703.999997" id="Line" stroke-width="10"></path>
                        <path d="M395,1 L338,1" id="Line" stroke-width="10"></path>
                        <path d="M602.4,565.4 L489.4,499.4" id="Line" stroke-width="10"></path>
                        <path d="M336,2 L279,151" id="Line" stroke-width="10"></path>
                        <g id="ends" transform="translate(139.000000, 151.000000)" stroke-width="6" fill="#556270">
                            <circle id="Oval-1" cx="136.5" cy="12.5" r="12.5"></circle>
                            <circle id="Oval-1-Copy-5" cx="12.5" cy="236.5" r="12.5"></circle>
                            <circle id="Oval-1-Copy-6" cx="337.5" cy="340.5" r="12.5"></circle>
                            <circle id="Oval-1-Copy-2" cx="172.9" cy="657.9" r="12.5"></circle>
                            <circle id="Oval-1-Copy-3" cx="156.5" cy="687.5" r="12.5"></circle>
                            <circle id="Oval-1-Copy-4" cx="132.5" cy="655.5" r="12.5"></circle>
                            <circle id="Oval-1-Copy-8" cx="118.5" cy="794.5" r="12.5"></circle>
                            <circle id="Oval-1-Copy-7" cx="58.1" cy="860.5" r="12.5"></circle>
                            <circle id="Oval-1-Copy" cx="127.5" cy="150.5" r="12.5"></circle>
                        </g>
                        <path d="M318,53 L330,134" id="Line" stroke-width="10"></path>
                    </g>
                </g>
            </g>
        </g>
    </g>
</svg>