<?xml version="1.0" encoding="utf-8"?>
<!-- Generator: Adobe Illustrator 17.0.0, SVG Export Plug-In . SVG Version: 6.00 Build 0)  -->
<!DOCTYPE svg PUBLIC "-//W3C//DTD SVG 1.1//EN" "http://www.w3.org/Graphics/SVG/1.1/DTD/svg11.dtd">
<svg version="1.1" id="Layer_1" xmlns="http://www.w3.org/2000/svg" xmlns:xlink="http://www.w3.org/1999/xlink" x="0px" y="0px"
	 width="985px" height="366px" viewBox="0 0 985 366" enable-background="new 0 0 985 366" xml:space="preserve">
<rect x="391" y="96" fill="#556270" width="163" height="141"/>
<rect x="735" y="46" fill="#556270" width="223" height="43"/>
<rect x="735" y="95" fill="#556270" width="56" height="141"/>
<rect x="795" y="96" fill="#556270" width="163" height="141"/>
<rect x="735" y="242" fill="#556270" width="223" height="14"/>
<rect x="21" y="48" fill="#556270" width="223" height="43"/>
<rect x="21" y="96" fill="#556270" width="56" height="141"/>
<rect x="21" y="244" fill="#556270" width="223" height="14"/>
<text transform="matrix(1 0 0 1 275.1437 180.6667)" fill="#4ECDC4" font-family="'FontAwesome'" font-size="48"></text>
<text transform="matrix(4.489659e-011 -1 1 4.489659e-011 672.7251 163.2852)" fill="#4ECDC4" font-family="'FontAwesome'" font-size="55"></text>
<text transform="matrix(4.489659e-011 -1 1 4.489659e-011 672.7251 205.4512)" fill="#4ECDC4" font-family="'FontAwesome'" font-size="55"></text>
<text transform="matrix(4.489659e-011 -1 1 4.489659e-011 672.7251 121.1191)" fill="#4ECDC4" font-family="'FontAwesome'" font-size="55"></text>
<text transform="matrix(1 0 0 1 82.1839 323.6893)" fill="#FF6B6B" font-family="'Roboto-Black'" font-size="33">Layout</text>
<text transform="matrix(1 0 0 1 413.6522 323.6893)" fill="#FF6B6B" font-family="'Roboto-Black'" font-size="33">Content</text>
<text transform="matrix(1 0 0 1 760.8983 323.6893)" fill="#FF6B6B" font-family="'Roboto-Black'" font-size="33">Static Page</text>
</svg>
